<svg xmlns="http://www.w3.org/2000/svg" version="1.1" xmlns:xlink="http://www.w3.org/1999/xlink" xmlns:svgjs="http://svgjs.dev/svgjs" viewBox="0 0 11.326715583487607 1.8186323861280216"><g transform="matrix(1,0,0,1,2.832754029000343,0.37231619306401087)"><rect width="11.326715583487607" height="11.326715583487607" x="-2.832754029000343" y="-5.1263577917438035" fill="#dddee0"></rect><g><path d=" M 0.8805000000000001 0.016499999999999737 L 0.8805000000000001 0.25049999999999983 L 0.5985 0.25049999999999983 L 0.5985 1.0739999999999998 L 0.3045 1.0739999999999998 L 0.3045 0.25049999999999983 L 0.025500000000000002 0.25049999999999983 L 0.025500000000000002 0.016499999999999737 L 0.8805000000000001 0.016499999999999737 M 1.282505859375 0.2519999999999998 L 1.282505859375 0.4244999999999999 L 1.620005859375 0.4244999999999999 L 1.620005859375 0.6479999999999999 L 1.282505859375 0.6479999999999999 L 1.282505859375 0.8384999999999998 L 1.665005859375 0.8384999999999998 L 1.665005859375 1.0739999999999998 L 0.9885058593749999 1.0739999999999998 L 0.9885058593749999 0.016499999999999737 L 1.665005859375 0.016499999999999737 L 1.665005859375 0.2519999999999998 L 1.282505859375 0.2519999999999998 M 1.83821630859375 0.2647499999999998 Q 1.90346630859375 0.14249999999999985 2.0234663085937497 0.07424999999999982 Q 2.1434663085937498 0.005999999999999783 2.29946630859375 0.005999999999999783 Q 2.49746630859375 0.005999999999999783 2.6324663085937496 0.1117499999999998 Q 2.76746630859375 0.2174999999999998 2.80646630859375 0.3989999999999998 L 2.48996630859375 0.3989999999999998 Q 2.46146630859375 0.33899999999999986 2.41121630859375 0.3074999999999998 Q 2.36096630859375 0.2759999999999998 2.29496630859375 0.2759999999999998 Q 2.19296630859375 0.2759999999999998 2.1322163085937498 0.3487499999999998 Q 2.0714663085937497 0.4214999999999999 2.0714663085937497 0.5429999999999998 Q 2.0714663085937497 0.6659999999999998 2.1322163085937498 0.7387499999999998 Q 2.19296630859375 0.8114999999999999 2.29496630859375 0.8114999999999999 Q 2.36096630859375 0.8114999999999999 2.41121630859375 0.7799999999999998 Q 2.46146630859375 0.7484999999999998 2.48996630859375 0.6884999999999999 L 2.80646630859375 0.6884999999999999 Q 2.76746630859375 0.8699999999999999 2.6324663085937496 0.9757499999999999 Q 2.49746630859375 1.0815 2.29946630859375 1.0815 Q 2.1434663085937498 1.0815 2.0234663085937497 1.0132499999999998 Q 1.90346630859375 0.9449999999999998 1.83821630859375 0.8227499999999999 Q 1.77296630859375 0.7004999999999999 1.77296630859375 0.5429999999999998 Q 1.77296630859375 0.3869999999999998 1.83821630859375 0.2647499999999998 M 3.890959716796875 0.016499999999999737 L 3.890959716796875 1.0739999999999998 L 3.5969597167968748 1.0739999999999998 L 3.5969597167968748 0.6494999999999999 L 3.238459716796875 0.6494999999999999 L 3.238459716796875 1.0739999999999998 L 2.944459716796875 1.0739999999999998 L 2.944459716796875 0.016499999999999737 L 3.238459716796875 0.016499999999999737 L 3.238459716796875 0.4139999999999998 L 3.5969597167968748 0.4139999999999998 L 3.5969597167968748 0.016499999999999737 L 3.890959716796875 0.016499999999999737 M 4.1534311523437495 0.9967499999999998 Q 4.034931152343749 0.9089999999999998 4.02593115234375 0.7454999999999998 L 4.339431152343749 0.7454999999999998 Q 4.34393115234375 0.8009999999999998 4.37243115234375 0.8264999999999998 Q 4.40093115234375 0.8519999999999999 4.44593115234375 0.8519999999999999 Q 4.48643115234375 0.8519999999999999 4.51268115234375 0.8317499999999999 Q 4.53893115234375 0.8114999999999999 4.53893115234375 0.7754999999999999 Q 4.53893115234375 0.7289999999999999 4.49543115234375 0.7034999999999998 Q 4.45193115234375 0.6779999999999998 4.35443115234375 0.6464999999999999 Q 4.25093115234375 0.6119999999999999 4.18718115234375 0.5797499999999998 Q 4.12343115234375 0.5474999999999999 4.07618115234375 0.48524999999999985 Q 4.02893115234375 0.4229999999999998 4.02893115234375 0.3224999999999998 Q 4.02893115234375 0.2204999999999998 4.079931152343749 0.14774999999999983 Q 4.1309311523437495 0.07499999999999984 4.220931152343749 0.03749999999999987 Q 4.31093115234375 -2.220446049250313e-16 4.42493115234375 -2.220446049250313e-16 Q 4.60943115234375 -2.220446049250313e-16 4.71968115234375 0.08624999999999983 Q 4.82993115234375 0.17249999999999988 4.83743115234375 0.3284999999999998 L 4.51793115234375 0.3284999999999998 Q 4.51643115234375 0.28049999999999986 4.48868115234375 0.25649999999999984 Q 4.46093115234375 0.23249999999999982 4.41743115234375 0.23249999999999982 Q 4.384431152343749 0.23249999999999982 4.3634311523437495 0.2519999999999998 Q 4.3424311523437495 0.27149999999999985 4.3424311523437495 0.3074999999999998 Q 4.3424311523437495 0.3374999999999998 4.3656811523437495 0.35924999999999985 Q 4.3889311523437495 0.3809999999999998 4.42343115234375 0.3967499999999998 Q 4.4579311523437495 0.41249999999999987 4.525431152343749 0.4364999999999998 Q 4.62593115234375 0.47099999999999986 4.691181152343749 0.5047499999999998 Q 4.75643115234375 0.5384999999999999 4.80368115234375 0.5992499999999998 Q 4.85093115234375 0.6599999999999998 4.85093115234375 0.7529999999999999 Q 4.85093115234375 0.8474999999999998 4.80368115234375 0.9224999999999999 Q 4.75643115234375 0.9974999999999998 4.667181152343749 1.041 Q 4.57793115234375 1.0844999999999998 4.456431152343749 1.0844999999999998 Q 4.2719311523437495 1.0844999999999998 4.1534311523437495 0.9967499999999998 M 5.932423828125 0.016499999999999737 L 5.932423828125 1.0739999999999998 L 5.638423828125 1.0739999999999998 L 5.638423828125 0.6494999999999999 L 5.279923828125 0.6494999999999999 L 5.279923828125 1.0739999999999998 L 4.985923828124999 1.0739999999999998 L 4.985923828124999 0.016499999999999737 L 5.279923828125 0.016499999999999737 L 5.279923828125 0.4139999999999998 L 5.638423828125 0.4139999999999998 L 5.638423828125 0.016499999999999737 L 5.932423828125 0.016499999999999737 M 6.332895263671874 1.0147499999999998 Q 6.208395263671875 0.9449999999999998 6.135645263671875 0.8212499999999998 Q 6.062895263671875 0.6974999999999998 6.062895263671875 0.5414999999999999 Q 6.062895263671875 0.38549999999999984 6.135645263671875 0.2617499999999998 Q 6.208395263671875 0.1379999999999998 6.332895263671874 0.06899999999999973 Q 6.4573952636718746 -2.220446049250313e-16 6.605895263671875 -2.220446049250313e-16 Q 6.755895263671874 -2.220446049250313e-16 6.879645263671875 0.06899999999999973 Q 7.003395263671875 0.1379999999999998 7.075395263671875 0.2617499999999998 Q 7.147395263671875 0.38549999999999984 7.147395263671875 0.5414999999999999 Q 7.147395263671875 0.6974999999999998 7.075395263671875 0.8212499999999998 Q 7.003395263671875 0.9449999999999998 6.8788952636718745 1.0147499999999998 Q 6.754395263671874 1.0844999999999998 6.605895263671875 1.0844999999999998 Q 6.4573952636718746 1.0844999999999998 6.332895263671874 1.0147499999999998 M 6.7836452636718745 0.7379999999999998 Q 6.848895263671874 0.6644999999999999 6.848895263671874 0.5414999999999999 Q 6.848895263671874 0.41549999999999987 6.7836452636718745 0.3427499999999998 Q 6.718395263671875 0.2699999999999998 6.605895263671875 0.2699999999999998 Q 6.491895263671875 0.2699999999999998 6.427395263671874 0.3427499999999998 Q 6.3628952636718745 0.41549999999999987 6.3628952636718745 0.5414999999999999 Q 6.3628952636718745 0.6659999999999998 6.427395263671874 0.7387499999999998 Q 6.491895263671875 0.8114999999999999 6.605895263671875 0.8114999999999999 Q 6.718395263671875 0.8114999999999999 6.7836452636718745 0.7379999999999998 M 8.069126220703124 0.5437499999999998 Q 8.024876220703124 0.6224999999999998 7.935626220703124 0.6697499999999998 Q 7.8463762207031245 0.7169999999999999 7.717376220703125 0.7169999999999999 L 7.571876220703125 0.7169999999999999 L 7.571876220703125 1.0739999999999998 L 7.277876220703124 1.0739999999999998 L 7.277876220703124 0.016499999999999737 L 7.717376220703125 0.016499999999999737 Q 7.844876220703124 0.016499999999999737 7.934126220703124 0.06149999999999989 Q 8.023376220703124 0.10649999999999982 8.068376220703124 0.18599999999999983 Q 8.113376220703124 0.26549999999999985 8.113376220703124 0.3689999999999999 Q 8.113376220703124 0.46499999999999986 8.069126220703124 0.5437499999999998 M 7.813376220703125 0.3689999999999999 Q 7.813376220703125 0.25349999999999984 7.688876220703125 0.25349999999999984 L 7.571876220703125 0.25349999999999984 L 7.571876220703125 0.4829999999999999 L 7.688876220703125 0.4829999999999999 Q 7.813376220703125 0.4829999999999999 7.813376220703125 0.3689999999999999" fill="#000000" fill-rule="nonzero"></path></g><g></g><g clip-path="url(#SvgjsClipPath1004)"><g clip-path="url(#SvgjsClipPath1001b85b3262-ef0f-427c-81b7-2705c49323e2)"><path d=" M -1.6669832339304684 -0.026210351467371495 L -0.8801137422344805 -0.026210351467371495 L -1.699778695707716 0.7308920882100787 L -2.486648187403704 0.7308920882100787 Z" fill="#000000" transform="matrix(1,0,0,1,0,0)" fill-rule="nonzero"></path></g><g clip-path="url(#SvgjsClipPath1001b85b3262-ef0f-427c-81b7-2705c49323e2)"><path d=" M -1.1868694916959877 0.3431079117899213 L -0.3999999999999999 0.3431079117899213 L -1.2196649534732356 1.1002103514673713 L -2.006534445169223 1.1002103514673713 Z" fill="#3949ab" transform="matrix(1,0,0,1,0,0)" fill-rule="nonzero"></path></g></g></g><defs><clipPath id="SvgjsClipPath1004"><path d=" M -2.486648187403704 -0.026210351467371495 h 2.086648187403704 v 1.1264207029347428 h -2.086648187403704 Z"></path></clipPath><clipPath id="SvgjsClipPath1001b85b3262-ef0f-427c-81b7-2705c49323e2"><path d=" M -2.486648187403704 -0.026210351467371495 L -0.3999999999999999 -0.026210351467371495 L -0.3999999999999999 1.1002103514673713 L -2.486648187403704 1.1002103514673713 Z"></path></clipPath></defs></svg>